<mxfile host="65bd71144e">
    <diagram id="C5RBs43oDa-KdzZeNtuy" name="Page-1">
        <mxGraphModel dx="47" dy="718" grid="1" gridSize="8" guides="1" tooltips="1" connect="1" arrows="1" fold="1" page="0" pageScale="1" pageWidth="827" pageHeight="1169" background="none" math="0" shadow="0">
            <root>
                <mxCell id="WIyWlLk6GJQsqaUBKTNV-0"/>
                <mxCell id="WIyWlLk6GJQsqaUBKTNV-1" parent="WIyWlLk6GJQsqaUBKTNV-0"/>
                <mxCell id="UVhrQCwGrT_3dY3yA3XA-4" value="Persona&lt;div&gt;&lt;br&gt;&lt;/div&gt;" style="swimlane;fontStyle=1;align=center;verticalAlign=top;childLayout=stackLayout;horizontal=1;startSize=26;horizontalStack=0;resizeParent=1;resizeParentMax=0;resizeLast=0;collapsible=1;marginBottom=0;whiteSpace=wrap;html=1;strokeColor=#ADADAD;labelBackgroundColor=none;labelBorderColor=none;fontColor=#FFFFFF;rounded=0;fillColor=default;" parent="WIyWlLk6GJQsqaUBKTNV-1" vertex="1">
                    <mxGeometry x="552" y="104" width="248" height="658" as="geometry"/>
                </mxCell>
                <mxCell id="UVhrQCwGrT_3dY3yA3XA-8" value="- sexo: char" style="text;strokeColor=none;fillColor=none;align=left;verticalAlign=top;spacingLeft=4;spacingRight=4;overflow=hidden;rotatable=0;points=[[0,0.5],[1,0.5]];portConstraint=eastwest;whiteSpace=wrap;html=1;rounded=0;fontColor=#FFFFFF;" parent="UVhrQCwGrT_3dY3yA3XA-4" vertex="1">
                    <mxGeometry y="26" width="248" height="26" as="geometry"/>
                </mxCell>
                <mxCell id="UVhrQCwGrT_3dY3yA3XA-5" value="- edad: int" style="text;strokeColor=none;fillColor=none;align=left;verticalAlign=top;spacingLeft=4;spacingRight=4;overflow=hidden;rotatable=0;points=[[0,0.5],[1,0.5]];portConstraint=eastwest;whiteSpace=wrap;html=1;rounded=0;fontColor=#FFFFFF;" parent="UVhrQCwGrT_3dY3yA3XA-4" vertex="1">
                    <mxGeometry y="52" width="248" height="26" as="geometry"/>
                </mxCell>
                <mxCell id="UVhrQCwGrT_3dY3yA3XA-9" value="- dni: String" style="text;strokeColor=none;fillColor=none;align=left;verticalAlign=top;spacingLeft=4;spacingRight=4;overflow=hidden;rotatable=0;points=[[0,0.5],[1,0.5]];portConstraint=eastwest;whiteSpace=wrap;html=1;rounded=0;labelBackgroundColor=none;fontColor=#FFFFFF;labelBorderColor=none;" parent="UVhrQCwGrT_3dY3yA3XA-4" vertex="1">
                    <mxGeometry y="78" width="248" height="26" as="geometry"/>
                </mxCell>
                <mxCell id="UVhrQCwGrT_3dY3yA3XA-10" value="- nombre: String" style="text;strokeColor=none;fillColor=none;align=left;verticalAlign=top;spacingLeft=4;spacingRight=4;overflow=hidden;rotatable=0;points=[[0,0.5],[1,0.5]];portConstraint=eastwest;whiteSpace=wrap;html=1;rounded=0;fontColor=#FFFFFF;" parent="UVhrQCwGrT_3dY3yA3XA-4" vertex="1">
                    <mxGeometry y="104" width="248" height="26" as="geometry"/>
                </mxCell>
                <mxCell id="UVhrQCwGrT_3dY3yA3XA-11" value="- apellido: String" style="text;strokeColor=none;fillColor=none;align=left;verticalAlign=top;spacingLeft=4;spacingRight=4;overflow=hidden;rotatable=0;points=[[0,0.5],[1,0.5]];portConstraint=eastwest;whiteSpace=wrap;html=1;rounded=0;fontColor=#FFFFFF;" parent="UVhrQCwGrT_3dY3yA3XA-4" vertex="1">
                    <mxGeometry y="130" width="248" height="26" as="geometry"/>
                </mxCell>
                <mxCell id="14" value="- ciudadResidencia: String" style="text;strokeColor=none;fillColor=none;align=left;verticalAlign=top;spacingLeft=4;spacingRight=4;overflow=hidden;rotatable=0;points=[[0,0.5],[1,0.5]];portConstraint=eastwest;whiteSpace=wrap;html=1;rounded=0;fontColor=#FFFFFF;" parent="UVhrQCwGrT_3dY3yA3XA-4" vertex="1">
                    <mxGeometry y="156" width="248" height="26" as="geometry"/>
                </mxCell>
                <mxCell id="UVhrQCwGrT_3dY3yA3XA-16" value="- profesion: String" style="text;strokeColor=none;fillColor=none;align=left;verticalAlign=top;spacingLeft=4;spacingRight=4;overflow=hidden;rotatable=0;points=[[0,0.5],[1,0.5]];portConstraint=eastwest;whiteSpace=wrap;html=1;rounded=0;fontColor=#FFFFFF;" parent="UVhrQCwGrT_3dY3yA3XA-4" vertex="1">
                    <mxGeometry y="182" width="248" height="26" as="geometry"/>
                </mxCell>
                <mxCell id="UVhrQCwGrT_3dY3yA3XA-6" value="" style="line;strokeWidth=1;fillColor=none;align=left;verticalAlign=middle;spacingTop=-1;spacingLeft=3;spacingRight=3;rotatable=0;labelPosition=right;points=[];portConstraint=eastwest;strokeColor=inherit;rounded=0;fontColor=#FFFFFF;" parent="UVhrQCwGrT_3dY3yA3XA-4" vertex="1">
                    <mxGeometry y="208" width="248" height="8" as="geometry"/>
                </mxCell>
                <mxCell id="UVhrQCwGrT_3dY3yA3XA-13" value="&lt;span style=&quot;text-wrap: nowrap;&quot;&gt;+ public Persona()&lt;/span&gt;" style="text;strokeColor=none;fillColor=none;align=left;verticalAlign=top;spacingLeft=4;spacingRight=4;overflow=hidden;rotatable=0;points=[[0,0.5],[1,0.5]];portConstraint=eastwest;whiteSpace=wrap;html=1;rounded=0;fontColor=#FFFFFF;" parent="UVhrQCwGrT_3dY3yA3XA-4" vertex="1">
                    <mxGeometry y="216" width="248" height="26" as="geometry"/>
                </mxCell>
                <mxCell id="UVhrQCwGrT_3dY3yA3XA-7" value="&lt;span style=&quot;&quot;&gt;+ public getNombre(): String&lt;/span&gt;" style="text;strokeColor=none;fillColor=none;align=left;verticalAlign=top;spacingLeft=4;spacingRight=4;overflow=hidden;rotatable=0;points=[[0,0.5],[1,0.5]];portConstraint=eastwest;whiteSpace=wrap;html=1;rounded=0;fontColor=#FFFFFF;" parent="UVhrQCwGrT_3dY3yA3XA-4" vertex="1">
                    <mxGeometry y="242" width="248" height="26" as="geometry"/>
                </mxCell>
                <mxCell id="UVhrQCwGrT_3dY3yA3XA-14" value="+ public setNombre(String): void" style="text;strokeColor=none;fillColor=none;align=left;verticalAlign=top;spacingLeft=4;spacingRight=4;overflow=hidden;rotatable=0;points=[[0,0.5],[1,0.5]];portConstraint=eastwest;whiteSpace=wrap;html=1;rounded=0;fontColor=#FFFFFF;" parent="UVhrQCwGrT_3dY3yA3XA-4" vertex="1">
                    <mxGeometry y="268" width="248" height="26" as="geometry"/>
                </mxCell>
                <mxCell id="11" value="+ public getApellido(): String" style="text;strokeColor=none;fillColor=none;align=left;verticalAlign=top;spacingLeft=4;spacingRight=4;overflow=hidden;rotatable=0;points=[[0,0.5],[1,0.5]];portConstraint=eastwest;whiteSpace=wrap;html=1;rounded=0;fontColor=#FFFFFF;" parent="UVhrQCwGrT_3dY3yA3XA-4" vertex="1">
                    <mxGeometry y="294" width="248" height="26" as="geometry"/>
                </mxCell>
                <mxCell id="12" value="+ public setApellido(String): void" style="text;strokeColor=none;fillColor=none;align=left;verticalAlign=top;spacingLeft=4;spacingRight=4;overflow=hidden;rotatable=0;points=[[0,0.5],[1,0.5]];portConstraint=eastwest;whiteSpace=wrap;html=1;rounded=0;fontColor=#FFFFFF;" parent="UVhrQCwGrT_3dY3yA3XA-4" vertex="1">
                    <mxGeometry y="320" width="248" height="26" as="geometry"/>
                </mxCell>
                <mxCell id="13" value="+ public getDni(): String" style="text;strokeColor=none;fillColor=none;align=left;verticalAlign=top;spacingLeft=4;spacingRight=4;overflow=hidden;rotatable=0;points=[[0,0.5],[1,0.5]];portConstraint=eastwest;whiteSpace=wrap;html=1;rounded=0;fontColor=#FFFFFF;" parent="UVhrQCwGrT_3dY3yA3XA-4" vertex="1">
                    <mxGeometry y="346" width="248" height="26" as="geometry"/>
                </mxCell>
                <mxCell id="UVhrQCwGrT_3dY3yA3XA-15" value="+ public setDni(String): void" style="text;strokeColor=none;fillColor=none;align=left;verticalAlign=top;spacingLeft=4;spacingRight=4;overflow=hidden;rotatable=0;points=[[0,0.5],[1,0.5]];portConstraint=eastwest;whiteSpace=wrap;html=1;rounded=0;fontColor=#FFFFFF;" parent="UVhrQCwGrT_3dY3yA3XA-4" vertex="1">
                    <mxGeometry y="372" width="248" height="26" as="geometry"/>
                </mxCell>
                <mxCell id="1" value="+ public getSexo(): char" style="text;strokeColor=none;fillColor=none;align=left;verticalAlign=top;spacingLeft=4;spacingRight=4;overflow=hidden;rotatable=0;points=[[0,0.5],[1,0.5]];portConstraint=eastwest;whiteSpace=wrap;html=1;rounded=0;fontColor=#FFFFFF;" parent="UVhrQCwGrT_3dY3yA3XA-4" vertex="1">
                    <mxGeometry y="398" width="248" height="26" as="geometry"/>
                </mxCell>
                <mxCell id="0" value="+ public setSexo(char): void" style="text;strokeColor=none;fillColor=none;align=left;verticalAlign=top;spacingLeft=4;spacingRight=4;overflow=hidden;rotatable=0;points=[[0,0.5],[1,0.5]];portConstraint=eastwest;whiteSpace=wrap;html=1;rounded=0;fontColor=#FFFFFF;" parent="UVhrQCwGrT_3dY3yA3XA-4" vertex="1">
                    <mxGeometry y="424" width="248" height="26" as="geometry"/>
                </mxCell>
                <mxCell id="15" value="+ public getEdad(): int" style="text;strokeColor=none;fillColor=none;align=left;verticalAlign=top;spacingLeft=4;spacingRight=4;overflow=hidden;rotatable=0;points=[[0,0.5],[1,0.5]];portConstraint=eastwest;whiteSpace=wrap;html=1;rounded=0;fontColor=#FFFFFF;" vertex="1" parent="UVhrQCwGrT_3dY3yA3XA-4">
                    <mxGeometry y="450" width="248" height="26" as="geometry"/>
                </mxCell>
                <mxCell id="16" value="+ public setEdad(int): void" style="text;strokeColor=none;fillColor=none;align=left;verticalAlign=top;spacingLeft=4;spacingRight=4;overflow=hidden;rotatable=0;points=[[0,0.5],[1,0.5]];portConstraint=eastwest;whiteSpace=wrap;html=1;rounded=0;fontColor=#FFFFFF;" vertex="1" parent="UVhrQCwGrT_3dY3yA3XA-4">
                    <mxGeometry y="476" width="248" height="26" as="geometry"/>
                </mxCell>
                <mxCell id="17" value="+ public getCiudadResidencia(): String" style="text;strokeColor=none;fillColor=none;align=left;verticalAlign=top;spacingLeft=4;spacingRight=4;overflow=hidden;rotatable=0;points=[[0,0.5],[1,0.5]];portConstraint=eastwest;whiteSpace=wrap;html=1;rounded=0;fontColor=#FFFFFF;" vertex="1" parent="UVhrQCwGrT_3dY3yA3XA-4">
                    <mxGeometry y="502" width="248" height="26" as="geometry"/>
                </mxCell>
                <mxCell id="18" value="+ public setCiudadResidencia(String): void" style="text;strokeColor=none;fillColor=none;align=left;verticalAlign=top;spacingLeft=4;spacingRight=4;overflow=hidden;rotatable=0;points=[[0,0.5],[1,0.5]];portConstraint=eastwest;whiteSpace=wrap;html=1;rounded=0;fontColor=#FFFFFF;" vertex="1" parent="UVhrQCwGrT_3dY3yA3XA-4">
                    <mxGeometry y="528" width="248" height="26" as="geometry"/>
                </mxCell>
                <mxCell id="20" value="+ public getProfesion(): String" style="text;strokeColor=none;fillColor=none;align=left;verticalAlign=top;spacingLeft=4;spacingRight=4;overflow=hidden;rotatable=0;points=[[0,0.5],[1,0.5]];portConstraint=eastwest;whiteSpace=wrap;html=1;rounded=0;fontColor=#FFFFFF;" vertex="1" parent="UVhrQCwGrT_3dY3yA3XA-4">
                    <mxGeometry y="554" width="248" height="26" as="geometry"/>
                </mxCell>
                <mxCell id="21" value="+ public setProfesion(String): void" style="text;strokeColor=none;fillColor=none;align=left;verticalAlign=top;spacingLeft=4;spacingRight=4;overflow=hidden;rotatable=0;points=[[0,0.5],[1,0.5]];portConstraint=eastwest;whiteSpace=wrap;html=1;rounded=0;fontColor=#FFFFFF;" vertex="1" parent="UVhrQCwGrT_3dY3yA3XA-4">
                    <mxGeometry y="580" width="248" height="26" as="geometry"/>
                </mxCell>
                <mxCell id="19" value="+ public concatenar(): String" style="text;strokeColor=none;fillColor=none;align=left;verticalAlign=top;spacingLeft=4;spacingRight=4;overflow=hidden;rotatable=0;points=[[0,0.5],[1,0.5]];portConstraint=eastwest;whiteSpace=wrap;html=1;rounded=0;fontColor=#FFFFFF;" vertex="1" parent="UVhrQCwGrT_3dY3yA3XA-4">
                    <mxGeometry y="606" width="248" height="26" as="geometry"/>
                </mxCell>
                <mxCell id="22" value="+ public monstrarInfo(): void" style="text;strokeColor=none;fillColor=none;align=left;verticalAlign=top;spacingLeft=4;spacingRight=4;overflow=hidden;rotatable=0;points=[[0,0.5],[1,0.5]];portConstraint=eastwest;whiteSpace=wrap;html=1;rounded=0;fontColor=#FFFFFF;" vertex="1" parent="UVhrQCwGrT_3dY3yA3XA-4">
                    <mxGeometry y="632" width="248" height="26" as="geometry"/>
                </mxCell>
            </root>
        </mxGraphModel>
    </diagram>
</mxfile>